<svg width="14" height="14" viewBox="0 0 18 18" fill="none" xmlns="http://www.w3.org/2000/svg">
<g clip-path="url(#clip0)">
<path d="M17.877 16.9312L13.3418 12.3961C13.2609 12.3152 13.1555 12.273 13.043 12.273H12.6809C13.8867 10.9688 14.625 9.22852 14.625 7.3125C14.625 3.27305 11.352 0 7.3125 0C3.27305 0 0 3.27305 0 7.3125C0 11.352 3.27305 14.625 7.3125 14.625C9.22852 14.625 10.9688 13.8867 12.273 12.6844V13.043C12.273 13.1555 12.3188 13.2609 12.3961 13.3418L16.9312 17.877C17.0965 18.0422 17.3637 18.0422 17.5289 17.877L17.877 17.5289C18.0422 17.3637 18.0422 17.0965 17.877 16.9312ZM7.3125 13.5C3.8918 13.5 1.125 10.7332 1.125 7.3125C1.125 3.8918 3.8918 1.125 7.3125 1.125C10.7332 1.125 13.5 3.8918 13.5 7.3125C13.5 10.7332 10.7332 13.5 7.3125 13.5Z" fill="#9899ae"/>
</g>
<defs>
<clipPath id="clip0">
<rect width="18" height="18" fill="white"/>
</clipPath>
</defs>
</svg>
